<svg xmlns="http://www.w3.org/2000/svg" xmlns:xlink="http://www.w3.org/1999/xlink" width="500" zoomAndPan="magnify" viewBox="0 0 375 374.999991" height="500" preserveAspectRatio="xMidYMid meet" version="1.0"><defs><g/><clipPath id="2ed67bb251"><rect x="0" width="263" y="0" height="90"/></clipPath></defs><g transform="matrix(1, 0, 0, 1, 56, 142)"><g clip-path="url(#2ed67bb251)"><g fill="#0077ff" fill-opacity="1"><g transform="translate(0.220114, 79.411239)"><g><path d="M 59.796875 -15.703125 L 59.796875 0 L 12.78125 0 L 12.78125 -61.75 L 16.0625 -61.75 L 16.0625 -15.703125 Z M 59.796875 -15.703125 "/></g></g></g><g fill="#0077ff" fill-opacity="1"><g transform="translate(65.85736, 79.411239)"><g><path d="M 57.3125 -61.75 L 57.3125 -58.46875 L 14.8125 -58.46875 L 14.8125 -38.6875 L 48.890625 -38.6875 L 48.890625 -23.0625 L 14.8125 -23.0625 L 14.8125 0 L 11.53125 0 L 11.53125 -61.75 Z M 57.3125 -61.75 "/></g></g></g><g fill="#0077ff" fill-opacity="1"><g transform="translate(131.494606, 79.411239)"><g><path d="M 61.921875 0 L 3.71875 0 L 32.828125 -63.078125 Z M 8.875 -3.28125 L 56.78125 -3.28125 L 32.828125 -55.265625 Z M 8.875 -3.28125 "/></g></g></g><g fill="#0077ff" fill-opacity="1"><g transform="translate(197.131852, 79.411239)"><g><path d="M 12.859375 -46.140625 L 12.859375 -61.75 L 52.78125 -61.75 L 52.78125 -46.140625 L 34.421875 -46.140625 L 34.421875 -15.609375 L 52.78125 -15.609375 L 52.78125 0 L 12.859375 0 L 12.859375 -15.609375 L 31.234375 -15.609375 L 31.234375 -46.140625 Z M 12.859375 -46.140625 "/></g></g></g></g></g></svg>