<svg xmlns="http://www.w3.org/2000/svg" xmlns:xlink="http://www.w3.org/1999/xlink" width="500" zoomAndPan="magnify" viewBox="0 0 375 374.999991" height="500" preserveAspectRatio="xMidYMid meet" version="1.0"><defs><g/><clipPath id="4c1bb30c3a"><rect x="0" width="375" y="0" height="136"/></clipPath></defs><g transform="matrix(1, 0, 0, 1, 0, 119)"><g clip-path="url(#4c1bb30c3a)"><g fill="#0077ff" fill-opacity="1"><g transform="translate(-14.126552, 120.582646)"><g><path d="M 91.828125 -24.109375 L 91.828125 0 L 19.625 0 L 19.625 -94.828125 L 24.65625 -94.828125 L 24.65625 -24.109375 Z M 91.828125 -24.109375 "/></g></g></g><g fill="#0077ff" fill-opacity="1"><g transform="translate(86.68258, 120.582646)"><g><path d="M 88.015625 -94.828125 L 88.015625 -89.78125 L 22.75 -89.78125 L 22.75 -59.40625 L 75.078125 -59.40625 L 75.078125 -35.421875 L 22.75 -35.421875 L 22.75 0 L 17.71875 0 L 17.71875 -94.828125 Z M 88.015625 -94.828125 "/></g></g></g><g fill="#0077ff" fill-opacity="1"><g transform="translate(187.491711, 120.582646)"><g><path d="M 95.109375 0 L 5.71875 0 L 50.40625 -96.875 Z M 13.625 -5.046875 L 87.203125 -5.046875 L 50.40625 -84.890625 Z M 13.625 -5.046875 "/></g></g></g><g fill="#0077ff" fill-opacity="1"><g transform="translate(288.300842, 120.582646)"><g><path d="M 19.75 -70.84375 L 19.75 -94.828125 L 81.0625 -94.828125 L 81.0625 -70.84375 L 52.859375 -70.84375 L 52.859375 -23.984375 L 81.0625 -23.984375 L 81.0625 0 L 19.75 0 L 19.75 -23.984375 L 47.953125 -23.984375 L 47.953125 -70.84375 Z M 19.75 -70.84375 "/></g></g></g></g></g></svg>